<svg width="1280" height="360" viewBox="0 0 1280 360" fill="none" xmlns="http://www.w3.org/2000/svg">
  <defs>
    <linearGradient id="courtGrad" x1="0" y1="0" x2="1" y2="1">
      <stop offset="0" stop-color="#00E0A4"/>
      <stop offset="1" stop-color="#54A7FF"/>
    </linearGradient>
    <filter id="softShadow" x="-20%" y="-20%" width="140%" height="140%">
      <feDropShadow dx="0" dy="18" stdDeviation="18" flood-color="#000000" flood-opacity="0.28"/>
    </filter>
  </defs>
  <rect width="1280" height="360" rx="56" fill="#07111F"/>
  <g transform="translate(78 58)" filter="url(#softShadow)">
    <rect x="0" y="0" width="244" height="244" rx="54" fill="#0B1B2E" stroke="#173654" stroke-width="3"/>
    <rect x="42" y="34" width="160" height="176" rx="22" stroke="url(#courtGrad)" stroke-width="10"/>
    <line x1="122" y1="34" x2="122" y2="210" stroke="#00E0A4" stroke-width="6" stroke-linecap="round" opacity="0.75"/>
    <line x1="42" y1="122" x2="202" y2="122" stroke="#FFFFFF" stroke-width="4" stroke-linecap="round" opacity="0.38"/>
    <path d="M66 176 C94 144 125 136 158 106 C174 91 184 72 194 54" stroke="#E8FF3D" stroke-width="8" stroke-linecap="round" fill="none"/>
    <circle cx="67" cy="176" r="8" fill="#E8FF3D"/>
    <circle cx="112" cy="142" r="6" fill="#E8FF3D" opacity="0.75"/>
    <circle cx="157" cy="107" r="6" fill="#E8FF3D" opacity="0.55"/>
    <circle cx="196" cy="54" r="10" fill="#E8FF3D"/>
    <path d="M183 40 L206 54 L183 68 Z" fill="#FFFFFF" opacity="0.88"/>
    <rect x="64" y="198" width="34" height="6" rx="3" fill="#54A7FF" opacity="0.85"/>
    <rect x="108" y="184" width="34" height="20" rx="5" fill="#54A7FF" opacity="0.95"/>
    <rect x="152" y="166" width="34" height="38" rx="5" fill="#54A7FF"/>
  </g>
  <g transform="translate(374 94)">
    <text x="0" y="82" font-family="Inter, Sora, Arial, sans-serif" font-size="88" font-weight="800" letter-spacing="-4" fill="#FFFFFF">Padel<tspan fill="#00E0A4">Pro</tspan></text>
    <text x="4" y="132" font-family="Inter, Sora, Arial, sans-serif" font-size="28" font-weight="600" letter-spacing="2.8" fill="#9EB3C7">VIDEO ANALYTICS FOR PADEL</text>
    <g transform="translate(4 164)">
      <rect x="0" y="0" width="154" height="42" rx="21" fill="#10253A" stroke="#1B4566"/>
      <text x="24" y="28" font-family="Inter, Arial, sans-serif" font-size="18" font-weight="700" fill="#E8FF3D">STATS</text>
      <circle cx="119" cy="21" r="7" fill="#00E0A4"/>
      <path d="M111 21 L118 28 L131 13" stroke="#07111F" stroke-width="4" stroke-linecap="round" stroke-linejoin="round"/>
    </g>
  </g>
</svg>
