<svg width="512" height="512" viewBox="0 0 512 512" fill="none" xmlns="http://www.w3.org/2000/svg">
  <defs>
    <linearGradient id="courtGrad" x1="96" y1="74" x2="416" y2="438" gradientUnits="userSpaceOnUse">
      <stop offset="0" stop-color="#00E0A4"/>
      <stop offset="1" stop-color="#54A7FF"/>
    </linearGradient>
  </defs>
  <rect width="512" height="512" rx="112" fill="#07111F"/>
  <rect x="96" y="74" width="320" height="364" rx="48" stroke="url(#courtGrad)" stroke-width="24"/>
  <line x1="256" y1="74" x2="256" y2="438" stroke="#00E0A4" stroke-width="14" stroke-linecap="round" opacity="0.72"/>
  <line x1="96" y1="256" x2="416" y2="256" stroke="#FFFFFF" stroke-width="10" stroke-linecap="round" opacity="0.34"/>
  <path d="M142 368 C194 304 250 290 316 220 C352 182 373 133 389 102" stroke="#E8FF3D" stroke-width="18" stroke-linecap="round" fill="none"/>
  <circle cx="142" cy="368" r="18" fill="#E8FF3D"/>
  <circle cx="235" cy="297" r="13" fill="#E8FF3D" opacity="0.7"/>
  <circle cx="316" cy="220" r="13" fill="#E8FF3D" opacity="0.55"/>
  <circle cx="389" cy="102" r="20" fill="#E8FF3D"/>
  <path d="M365 78 L415 106 L365 134 Z" fill="#FFFFFF" opacity="0.92"/>
  <rect x="143" y="405" width="66" height="14" rx="7" fill="#54A7FF" opacity="0.85"/>
  <rect x="229" y="378" width="66" height="41" rx="11" fill="#54A7FF" opacity="0.95"/>
  <rect x="315" y="338" width="66" height="81" rx="11" fill="#54A7FF"/>
</svg>
